Coordinates
version=1
nRows=17
nColumns=40
inDegrees=yes

Units are S.I. units (second, meters, Newtons, ...)
Angles are in degrees.

endheader
time	pelvis_tilt	pelvis_list	pelvis_rotation	pelvis_tx	pelvis_ty	pelvis_tz	hip_flexion_r	hip_adduction_r	hip_rotation_r	knee_angle_r	knee_angle_r_beta	ankle_angle_r	subtalar_angle_r	mtp_angle_r	hip_flexion_l	hip_adduction_l	hip_rotation_l	knee_angle_l	knee_angle_l_beta	ankle_angle_l	subtalar_angle_l	mtp_angle_l	lumbar_extension	lumbar_bending	lumbar_rotation	arm_flex_r	arm_add_r	arm_rot_r	elbow_flex_r	pro_sup_r	wrist_flex_r	wrist_dev_r	arm_flex_l	arm_add_l	arm_rot_l	elbow_flex_l	pro_sup_l	wrist_flex_l	wrist_dev_l
     49.63000000	     -3.16657925	     -4.87252817	      0.11832350	      1.20854315	      0.92386089	      0.55399177	     14.49872697	      5.43180150	     -9.77235836	     23.31807699	     23.31807699	     13.32907039	     -7.13396947	     -3.01017021	     18.40883215	    -15.06461218	      1.16091673	     53.67965206	     53.67965206	      5.54739145	    -17.54765623	     -3.65240600	     -9.21207664	      4.34985479	      0.63388497	     17.43369235	    -15.36770002	     -6.09940057	     38.63455291	     44.24130069	      0.00000000	      0.00000000	     14.75106316	     -9.51858682	      4.31050476	     32.72385642	     43.86723696	      0.00000000	      0.00000000
     49.65178571	     -3.00385339	     -5.01445125	      0.95612679	      1.20675857	      0.92175210	      0.55617611	     14.85742067	      5.68891370	     -9.86092288	     24.60566939	     24.60566939	     14.02674125	     -8.63506688	     -2.60782714	     21.28674686	    -15.07644632	      2.67884007	     57.76533032	     57.76533032	      5.43748021	    -18.03959642	      0.38277846	     -9.43280468	      4.36506491	      0.81967129	     19.86580249	    -15.45403277	     -6.08578483	     40.92513805	     44.27533840	      0.00000000	      0.00000000	     12.06632005	     -9.01253332	      4.76536178	     30.66497634	     43.92718225	      0.00000000	      0.00000000
     49.67357143	     -2.80839930	     -5.13549620	      1.81419070	      1.20489946	      0.91949889	      0.55822750	     15.21522208	      5.89231623	    -10.05289189	     25.96846307	     25.96846307	     14.82368128	     -9.93939944	     -2.08256228	     24.05692288	    -14.94301127	      4.14803094	     61.47706161	     61.47706161	      5.77729730	    -18.35937238	      5.26115962	     -9.71401195	      4.38734756	      0.97064922	     22.53550982	    -15.61693425	     -5.94630031	     43.21368804	     44.29908809	      0.00000000	      0.00000000	      9.35088987	     -8.65907004	      5.70705494	     28.42665675	     43.91106048	      0.00000000	      0.00000000
     49.69535714	     -2.64667068	     -5.26375029	      2.66880221	      1.20303821	      0.91712744	      0.56020862	     15.56216021	      6.09792440	    -10.29704369	     27.22673581	     27.22673581	     15.43492152	    -11.19698578	     -2.07046771	     26.55573675	    -14.90507416	      5.28053930	     64.31503738	     64.31503738	      5.18858753	    -18.79201171	      6.72462068	     -9.93506348	      4.41356535	      0.98671077	     25.48951134	    -15.63470362	     -6.10477565	     45.15101647	     44.27384561	      0.00000000	      0.00000000	      6.41750962	     -8.41990850	      6.12632576	     26.67935506	     43.83956528	      0.00000000	      0.00000000
     49.71714286	     -2.36852511	     -5.32501617	      3.52297821	      1.20108746	      0.91516605	      0.56171290	     15.72443443	      6.23452261	    -10.50556522	     28.38497986	     28.38497986	     16.29496272	    -12.29528321	     -1.07391157	     28.82558861	    -14.52921799	      6.47062116	     66.73408741	     66.73408741	      6.73550066	    -18.92153491	     13.12576213	    -10.37812984	      4.41944781	      1.31458734	     28.25877441	    -16.06567279	     -5.91189966	     47.60168785	     44.27447344	      0.00000000	      0.00000000	      3.93998931	     -8.20291908	      7.30860367	     24.75976102	     43.73557992	      0.00000000	      0.00000000
     49.73892857	     -2.22847719	     -5.36816514	      4.36967712	      1.19910519	      0.91317141	      0.56304722	     15.97112182	      6.30801328	    -10.82887900	     29.39795549	     29.39795549	     16.83453803	    -13.24936966	     -1.02272427	     30.79905228	    -14.35882411	      7.17137108	     67.96529517	     67.96529517	      6.79539091	    -19.13294191	     13.96188864	    -10.61135682	      4.41521392	      1.47843676	     31.16496508	    -16.30580854	     -6.12933182	     49.47240780	     44.25126627	      0.00000000	      0.00000000	      1.27342980	     -8.15224451	      7.65401066	     23.46717083	     43.65977560	      0.00000000	      0.00000000
     49.76071429	     -2.07221740	     -5.36309594	      5.23302175	      1.19705390	      0.91168971	      0.56384812	     16.05745188	      6.32343589	    -11.15457542	     30.13544079	     30.13544079	     17.32228540	    -14.13941859	     -0.71908198	     32.45778831	    -14.08278534	      7.69715960	     68.32453010	     68.32453010	      7.45768743	    -19.25686773	     15.43237179	    -10.90452213	      4.41129480	      1.55970698	     34.09594199	    -16.52486561	     -6.27643991	     51.62994455	     44.21811751	      0.00000000	      0.00000000	     -1.21884453	     -8.14916056	      8.05305113	     22.45516454	     43.57212466	      0.00000000	      0.00000000
     49.78250000	     -1.96340323	     -5.27472668	      6.09847161	      1.19489179	      0.91083816	      0.56411801	     16.01981303	      6.20171189	    -11.57658412	     30.57253657	     30.57253657	     17.83645963	    -14.65234793	     -0.09633903	     33.81693809	    -13.65702735	      8.03411005	     67.74415719	     67.74415719	      8.60025122	    -19.31970212	     17.52016565	    -11.18645591	      4.36554558	      1.81865859	     36.75357879	    -17.04836591	     -6.30051287	     54.12760388	     44.18496072	      0.00000000	      0.00000000	     -3.53687662	     -8.25495968	      8.66256769	     22.18401506	     43.45204435	      0.00000000	      0.00000000
     49.80428571	     -1.97633010	     -5.14123380	      6.97222795	      1.19259436	      0.91043331	      0.56394562	     15.97026075	      5.97992996	    -12.08735270	     30.73896004	     30.73896004	     18.14600087	    -15.01860499	      0.21608693	     34.92110621	    -13.21075529	      8.11796054	     66.14765102	     66.14765102	      9.38749296	    -19.35222531	     18.11205522	    -11.32454656	      4.27500980	      2.10271427	     39.40615206	    -17.62749544	     -6.42152882	     56.22928032	     44.15527346	      0.00000000	      0.00000000	     -5.61225788	     -8.38509493	      9.06737449	     21.98409564	     43.35588021	      0.00000000	      0.00000000
     49.82607143	     -2.05541524	     -4.96883137	      7.86438777	      1.19012627	      0.91073267	      0.56324696	     15.80607654	      5.68004384	    -12.66933661	     30.55876264	     30.55876264	     18.27585783	    -15.22849579	      0.44255889	     35.68664463	    -12.68640360	      8.02953636	     63.55178356	     63.55178356	      9.97340368	    -19.32900529	     18.23371382	    -11.41157761	      4.18201299	      2.41621742	     42.09734811	    -18.26379214	     -6.56508106	     58.18081621	     44.12327647	      0.00000000	      0.00000000	     -7.37043387	     -8.51000870	      9.33166276	     21.94915384	     43.28067872	      0.00000000	      0.00000000
     49.84785714	     -2.34555551	     -4.78692616	      8.80135135	      1.18755072	      0.91146488	      0.56212695	     15.65909046	      5.30427704	    -13.40581135	     29.99831516	     29.99831516	     18.32093121	    -15.13753785	      0.70374534	     36.28733466	    -12.07644010	      7.84056718	     60.04814154	     60.04814154	     10.07401612	    -19.26703014	     17.58313018	    -11.30852712	      4.07778889	      2.38593220	     44.37183745	    -18.73720136	     -6.41819813	     61.29726097	     44.05974635	      0.00000000	      0.00000000	     -9.47902937	     -8.80679836	      9.92641675	     23.01828649	     43.13883076	      0.00000000	      0.00000000
     49.86964286	     -2.70036652	     -4.55299503	      9.69681054	      1.18488532	      0.91274248	      0.56071315	     15.43734471	      4.87685354	    -14.09806126	     29.18119148	     29.18119148	     18.09806305	    -15.07843542	      0.63910264	     36.45092511	    -11.47196930	      7.37787635	     55.58216181	     55.58216181	      9.10509756	    -19.19937711	     14.85665608	    -11.17376186	      3.87632959	      2.86388351	     46.28276398	    -19.92020178	     -6.17508839	     64.50060274	     44.04767206	      0.00000000	      0.00000000	    -11.41815374	     -9.48067870	     11.68530570	     25.37279104	     42.85806806	      0.00000000	      0.00000000
     49.89142857	     -3.30865009	     -4.36406246	     10.56533920	      1.18193148	      0.91414110	      0.55890752	     15.39418301	      4.45639743	    -14.75314002	     28.15814209	     28.15814209	     17.82222298	    -15.03303501	      0.88657477	     36.69334237	    -10.69221337	      7.05803810	     50.79629267	     50.79629267	      8.75223101	    -18.89758629	     15.26498057	    -10.67037172	      3.71715216	      3.12490062	     48.91529919	    -20.59589773	     -6.42729065	     65.66133610	     44.03621159	      0.00000000	      0.00000000	    -12.41912213	     -9.47392260	     11.84762731	     25.20213351	     42.82179877	      0.00000000	      0.00000000
     49.91321429	     -3.56242774	     -4.14494158	     11.44548313	      1.17948512	      0.91649672	      0.55694652	     14.58706184	      4.06213104	    -15.75502472	     26.50986991	     26.50986991	     17.13533676	    -14.35882188	     -0.22893815	     35.86802688	    -10.12415867	      6.37610587	     44.92322062	     44.92322062	      5.75733244	    -18.74730330	      9.63506695	    -10.70786764	      3.55077355	      3.07456767	     50.82694727	    -21.03041779	     -6.01388703	     69.24481320	     44.02666229	      0.00000000	      0.00000000	    -14.30238456	    -10.22058402	     14.15961892	     27.93363949	     42.55231284	      0.00000000	      0.00000000
     49.93500000	     -4.04454578	     -3.92929004	     12.24628579	      1.17684413	      0.91851146	      0.55471935	     14.08509576	      3.62785452	    -16.66144364	     24.98578776	     24.98578776	     16.55479853	    -13.71320939	     -0.95772871	     35.22974851	     -9.39449781	      5.80748211	     39.24659331	     39.24659331	      3.50673715	    -18.14243272	      7.50718663	    -10.42770641	      3.35011482	      3.04017445	     53.04556443	    -21.36489075	     -5.80890387	     71.49762596	     44.04831153	      0.00000000	      0.00000000	    -15.47333600	    -10.56274741	     15.94285392	     29.26659999	     42.42165184	      0.00000000	      0.00000000
     49.95678571	     -4.57334891	     -3.78856399	     12.91637793	      1.17426732	      0.92037299	      0.55247869	     13.65251573	      3.36121716	    -17.23612396	     23.46153686	     23.46153686	     16.16567499	    -13.33538849	     -0.72779254	     34.69330903	     -8.74243263	      5.23656698	     34.08952421	     34.08952421	      2.24292499	    -16.65755022	      8.41632653	    -10.03749601	      3.16711914	      3.25234806	     55.39132919	    -21.64496010	     -5.85601030	     72.64744609	     44.03346253	      0.00000000	      0.00000000	    -16.01645207	    -10.47529573	     16.17430109	     29.44721271	     42.40153075	      0.00000000	      0.00000000
     49.97857143	     -4.92345304	     -3.74557965	     13.55812473	      1.17197216	      0.92220238	      0.55006379	     12.95445486	      3.21862799	    -18.03525619	     21.81213765	     21.81213765	     15.76741427	    -12.52948453	     -0.79411980	     33.98458655	     -8.25587198	      4.62557618	     29.37088240	     29.37088240	      0.78312349	    -14.71849387	      8.92097109	     -9.87024987	      3.14663760	      3.24870000	     57.61930146	    -21.71270215	     -5.65647619	     74.25932120	     43.99945665	      0.00000000	      0.00000000	    -16.64104651	    -10.36212009	     16.49089147	     30.01826718	     42.37593011	      0.00000000	      0.00000000
